Nepomuk-BoldItalic.220409-1801.ufo
<glyph name="quotedbl" format="2">
  <advance width="410"/>
  <unicode hex="0022"/>
  <outline>
    <contour>
      <point x="197" y="678" type="line" smooth="yes"/>
      <point x="201" y="710"/>
      <point x="214" y="747"/>
      <point x="252" y="747" type="curve" smooth="yes"/>
      <point x="271" y="747"/>
      <point x="281" y="736"/>
      <point x="281" y="715" type="curve" smooth="yes"/>
      <point x="281" y="707"/>
      <point x="278" y="696"/>
      <point x="273" y="680" type="curve"/>
      <point x="209" y="524" type="line"/>
      <point x="176" y="524" type="line"/>
    </contour>
    <contour>
      <point x="352" y="678" type="line" smooth="yes"/>
      <point x="356" y="711"/>
      <point x="369" y="747"/>
      <point x="408" y="747" type="curve" smooth="yes"/>
      <point x="427" y="747"/>
      <point x="437" y="736"/>
      <point x="437" y="715" type="curve" smooth="yes"/>
      <point x="437" y="707"/>
      <point x="434" y="696"/>
      <point x="429" y="680" type="curve"/>
      <point x="364" y="524" type="line"/>
      <point x="331" y="524" type="line"/>
    </contour>
  </outline>
</glyph>
<glyph name="parenleft" format="2">
  <advance width="355"/>
  <unicode hex="0028"/>
  <outline>
    <contour>
      <point x="151" y="117" type="curve" smooth="yes"/>
      <point x="151" y="368"/>
      <point x="268" y="557"/>
      <point x="415" y="650" type="curve"/>
      <point x="415" y="685" type="line"/>
      <point x="209" y="590"/>
      <point x="60" y="417"/>
      <point x="60" y="180" type="curve" smooth="yes"/>
      <point x="60" y="61"/>
      <point x="107" y="-49"/>
      <point x="167" y="-140" type="curve"/>
      <point x="215" y="-140" type="line"/>
      <point x="179" y="-68"/>
      <point x="151" y="18"/>
    </contour>
  </outline>
</glyph>
<glyph name="plus" format="2">
  <advance width="594"/>
  <unicode hex="002B"/>
  <outline>
    <contour>
      <point x="313" y="275" type="line"/>
      <point x="313" y="498" type="line"/>
      <point x="263" y="498" type="line"/>
      <point x="263" y="275" type="line"/>
      <point x="40" y="275" type="line"/>
      <point x="40" y="225" type="line"/>
      <point x="263" y="225" type="line"/>
      <point x="263" y="2" type="line"/>
      <point x="313" y="2" type="line"/>
      <point x="313" y="225" type="line"/>
      <point x="536" y="225" type="line"/>
      <point x="536" y="275" type="line"/>
    </contour>
  </outline>
</glyph>
<glyph name="comma" format="2">
  <advance width="255"/>
  <unicode hex="002C"/>
  <outline>
    <contour>
      <point x="101" y="135" type="curve" smooth="yes"/>
      <point x="60" y="135"/>
      <point x="26" y="109"/>
      <point x="26" y="70" type="curve" smooth="yes"/>
      <point x="26" y="40"/>
      <point x="51" y="13"/>
      <point x="81" y="4" type="curve"/>
      <point x="80" y="4" type="line"/>
      <point x="88" y="1"/>
      <point x="93" y="-3"/>
      <point x="93" y="-14" type="curve" smooth="yes"/>
      <point x="93" y="-65"/>
      <point x="12" y="-115"/>
      <point x="-49" y="-137" type="curve"/>
      <point x="-36" y="-167" type="line"/>
      <point x="80" y="-124"/>
      <point x="185" y="-54"/>
      <point x="185" y="51" type="curve" smooth="yes"/>
      <point x="185" y="91"/>
      <point x="156" y="135"/>
    </contour>
  </outline>
</glyph>
<glyph name="at" format="2">
  <advance width="839"/>
  <unicode hex="0040"/>
  <outline>
    <contour>
      <point x="468" y="-18" type="curve" smooth="yes"/>
      <point x="238" y="-18"/>
      <point x="98" y="137"/>
      <point x="98" y="364" type="curve" smooth="yes"/>
      <point x="98" y="575"/>
      <point x="268" y="747"/>
      <point x="478" y="747" type="curve" smooth="yes"/>
      <point x="690" y="747"/>
      <point x="833" y="601"/>
      <point x="833" y="385" type="curve" smooth="yes"/>
      <point x="833" y="254"/>
      <point x="735" y="132"/>
      <point x="597" y="132" type="curve" smooth="yes"/>
      <point x="543" y="132"/>
      <point x="502" y="163"/>
      <point x="497" y="212" type="curve"/>
      <point x="501" y="208" type="line"/>
      <point x="499" y="208" type="line"/>
      <point x="470" y="169"/>
      <point x="426" y="132"/>
      <point x="375" y="132" type="curve" smooth="yes"/>
      <point x="301" y="132"/>
      <point x="257" y="191"/>
      <point x="257" y="262" type="curve" smooth="yes"/>
      <point x="257" y="348"/>
      <point x="282" y="441"/>
      <point x="326" y="494" type="curve" smooth="yes"/>
      <point x="383" y="562"/>
      <point x="450" y="594"/>
      <point x="508" y="594" type="curve" smooth="yes"/>
      <point x="540" y="594"/>
      <point x="576" y="568"/>
      <point x="584" y="535" type="curve"/>
      <point x="579" y="539" type="line"/>
      <point x="580" y="539" type="line"/>
      <point x="591" y="582" type="line"/>
      <point x="675" y="582" type="line"/>
      <point x="588" y="263" type="line" smooth="yes"/>
      <point x="584" y="248"/>
      <point x="582" y="233"/>
      <point x="582" y="221" type="curve" smooth="yes"/>
      <point x="582" y="187"/>
      <point x="597" y="167"/>
      <point x="613" y="167" type="curve" smooth="yes"/>
      <point x="739" y="167"/>
      <point x="774" y="303"/>
      <point x="774" y="406" type="curve" smooth="yes"/>
      <point x="774" y="595"/>
      <point x="653" y="709"/>
      <point x="469" y="709" type="curve" smooth="yes"/>
      <point x="273" y="709"/>
      <point x="156" y="526"/>
      <point x="156" y="343" type="curve" smooth="yes"/>
      <point x="156" y="145"/>
      <point x="277" y="20"/>
      <point x="478" y="20" type="curve" smooth="yes"/>
      <point x="536" y="20"/>
      <point x="595" y="40"/>
      <point x="656" y="81" type="curve"/>
      <point x="679" y="49" type="line"/>
      <point x="632" y="16"/>
      <point x="561" y="-18"/>
    </contour>
    <contour>
      <point x="379" y="167" type="curve" smooth="yes"/>
      <point x="461" y="167"/>
      <point x="509" y="279"/>
      <point x="528" y="344" type="curve" smooth="yes"/>
      <point x="551" y="430" type="line" smooth="yes"/>
      <point x="554" y="441"/>
      <point x="556" y="454"/>
      <point x="556" y="466" type="curve" smooth="yes"/>
      <point x="556" y="514"/>
      <point x="537" y="560"/>
      <point x="508" y="560" type="curve" smooth="yes"/>
      <point x="381" y="560"/>
      <point x="336" y="334"/>
      <point x="336" y="230" type="curve" smooth="yes"/>
      <point x="336" y="192"/>
      <point x="358" y="167"/>
    </contour>
  </outline>
</glyph>
<glyph name="B" format="2">
  <advance width="671"/>
  <unicode hex="0042"/>
  <outline>
    <contour>
      <point x="291" y="384" type="line"/>
      <point x="354" y="604" type="line" smooth="yes"/>
      <point x="363" y="634"/>
      <point x="385" y="644"/>
      <point x="416" y="644" type="curve" smooth="yes"/>
      <point x="431" y="644" type="line" smooth="yes"/>
      <point x="473" y="644"/>
      <point x="499" y="614"/>
      <point x="499" y="563" type="curve" smooth="yes"/>
      <point x="499" y="547"/>
      <point x="496" y="531"/>
      <point x="491" y="514" type="curve" smooth="yes"/>
      <point x="464" y="419"/>
      <point x="418" y="384"/>
      <point x="337" y="384" type="curve" smooth="yes"/>
    </contour>
    <contour>
      <point x="451" y="365" type="curve"/>
      <point x="451" y="370" type="line"/>
      <point x="542" y="384"/>
      <point x="631" y="445"/>
      <point x="631" y="543" type="curve" smooth="yes"/>
      <point x="631" y="626"/>
      <point x="554" y="680"/>
      <point x="430" y="680" type="curve" smooth="yes"/>
      <point x="155" y="680" type="line"/>
      <point x="145" y="645" type="line"/>
      <point x="205" y="645" type="line" smooth="yes"/>
      <point x="225" y="645"/>
      <point x="235" y="636"/>
      <point x="235" y="616" type="curve" smooth="yes"/>
      <point x="235" y="610"/>
      <point x="233" y="604"/>
      <point x="232" y="598" type="curve"/>
      <point x="84" y="85" type="line" smooth="yes"/>
      <point x="74" y="50"/>
      <point x="58" y="35"/>
      <point x="30" y="35" type="curve" smooth="yes"/>
      <point x="-10" y="35" type="line"/>
      <point x="-20" y="0" type="line"/>
      <point x="266" y="0" type="line" smooth="yes"/>
      <point x="437" y="0"/>
      <point x="572" y="43"/>
      <point x="598" y="190" type="curve" smooth="yes"/>
      <point x="600" y="201"/>
      <point x="601" y="211" name="hr01"/>
      <point x="601" y="219" type="curve" smooth="yes"/>
      <point x="601" y="290"/>
      <point x="542" y="352"/>
    </contour>
    <contour>
      <point x="267" y="36" type="curve" smooth="yes"/>
      <point x="254" y="36" type="line" smooth="yes"/>
      <point x="238" y="36"/>
      <point x="201" y="43"/>
      <point x="201" y="69" type="curve" smooth="yes"/>
      <point x="201" y="72"/>
      <point x="201" y="74"/>
      <point x="202" y="76" type="curve" smooth="yes"/>
      <point x="228" y="166"/>
      <point x="254" y="258"/>
      <point x="280" y="348" type="curve"/>
      <point x="343" y="348" type="line" smooth="yes"/>
      <point x="426" y="348"/>
      <point x="465" y="314"/>
      <point x="465" y="236" type="curve" smooth="yes"/>
      <point x="465" y="113"/>
      <point x="392" y="36"/>
    </contour>
  </outline>
</glyph>
<glyph name="H" format="2">
  <advance width="761"/>
  <unicode hex="0048"/>
  <outline>
    <contour>
      <point x="722" y="595" type="line" smooth="yes"/>
      <point x="732" y="630"/>
      <point x="748" y="645"/>
      <point x="776" y="645" type="curve" smooth="yes"/>
      <point x="821" y="645" type="line"/>
      <point x="831" y="680" type="line"/>
      <point x="531" y="680" type="line"/>
      <point x="521" y="645" type="line"/>
      <point x="576" y="645" type="line" smooth="yes"/>
      <point x="596" y="645"/>
      <point x="605" y="636"/>
      <point x="605" y="616" type="curve" smooth="yes"/>
      <point x="605" y="609"/>
      <point x="604" y="602"/>
      <point x="602" y="595" type="curve" smooth="yes"/>
      <point x="591" y="556"/>
      <point x="546" y="400"/>
      <point x="535" y="361" type="curve"/>
      <point x="289" y="361" type="line"/>
      <point x="356" y="595" type="line" smooth="yes"/>
      <point x="366" y="630"/>
      <point x="382" y="645"/>
      <point x="410" y="645" type="curve" smooth="yes"/>
      <point x="455" y="645" type="line"/>
      <point x="465" y="680" type="line"/>
      <point x="165" y="680" type="line"/>
      <point x="155" y="645" type="line"/>
      <point x="210" y="645" type="line" smooth="yes"/>
      <point x="230" y="645"/>
      <point x="239" y="636"/>
      <point x="239" y="616" type="curve" smooth="yes"/>
      <point x="239" y="609"/>
      <point x="238" y="602"/>
      <point x="236" y="595" type="curve" smooth="yes"/>
      <point x="89" y="85" type="line" smooth="yes"/>
      <point x="79" y="50"/>
      <point x="63" y="35"/>
      <point x="35" y="35" type="curve" smooth="yes"/>
      <point x="-10" y="35" type="line"/>
      <point x="-20" y="0" type="line"/>
      <point x="280" y="0" type="line"/>
      <point x="290" y="35" type="line"/>
      <point x="235" y="35" type="line" smooth="yes"/>
      <point x="216" y="35"/>
      <point x="207" y="44"/>
      <point x="207" y="63" type="curve" smooth="yes"/>
      <point x="207" y="70"/>
      <point x="208" y="77"/>
      <point x="210" y="85" type="curve" smooth="yes"/>
      <point x="233" y="165"/>
      <point x="256" y="246"/>
      <point x="279" y="326" type="curve"/>
      <point x="269" y="326" type="line"/>
      <point x="524" y="326" type="line"/>
      <point x="455" y="85" type="line" smooth="yes"/>
      <point x="445" y="50"/>
      <point x="429" y="35"/>
      <point x="401" y="35" type="curve" smooth="yes"/>
      <point x="356" y="35" type="line"/>
      <point x="346" y="0" type="line"/>
      <point x="646" y="0" type="line"/>
      <point x="656" y="35" type="line"/>
      <point x="601" y="35" type="line" smooth="yes"/>
      <point x="582" y="35"/>
      <point x="573" y="44"/>
      <point x="573" y="63" type="curve" smooth="yes"/>
      <point x="573" y="70"/>
      <point x="574" y="77"/>
      <point x="576" y="85" type="curve" smooth="yes"/>
    </contour>
  </outline>
</glyph>
<glyph name="I" format="2">
  <advance width="400"/>
  <unicode hex="0049"/>
  <outline>
    <contour>
      <point x="361" y="595" type="line" smooth="yes"/>
      <point x="371" y="630"/>
      <point x="387" y="645"/>
      <point x="415" y="645" type="curve" smooth="yes"/>
      <point x="460" y="645" type="line"/>
      <point x="470" y="680" type="line"/>
      <point x="165" y="680" type="line"/>
      <point x="155" y="645" type="line"/>
      <point x="210" y="645" type="line" smooth="yes"/>
      <point x="230" y="645"/>
      <point x="239" y="636"/>
      <point x="239" y="616" type="curve" smooth="yes"/>
      <point x="239" y="609"/>
      <point x="238" y="602"/>
      <point x="236" y="595" type="curve" smooth="yes"/>
      <point x="89" y="85" type="line" smooth="yes"/>
      <point x="79" y="50"/>
      <point x="63" y="35"/>
      <point x="35" y="35" type="curve" smooth="yes"/>
      <point x="-10" y="35" type="line"/>
      <point x="-20" y="0" type="line"/>
      <point x="285" y="0" type="line"/>
      <point x="295" y="35" type="line"/>
      <point x="240" y="35" type="line" smooth="yes"/>
      <point x="221" y="35"/>
      <point x="212" y="44"/>
      <point x="212" y="63" type="curve" smooth="yes"/>
      <point x="212" y="70"/>
      <point x="213" y="78"/>
      <point x="215" y="85" type="curve" smooth="yes"/>
    </contour>
  </outline>
</glyph>
<glyph name="K" format="2">
  <advance width="742"/>
  <unicode hex="004B"/>
  <outline>
    <contour>
      <point x="255" y="242" type="line"/>
      <point x="252" y="242" type="line"/>
      <point x="352" y="324" type="line"/>
      <point x="449" y="88" type="line" smooth="yes"/>
      <point x="452" y="82"/>
      <point x="453" y="75"/>
      <point x="453" y="68" type="curve" smooth="yes"/>
      <point x="453" y="48"/>
      <point x="441" y="37"/>
      <point x="422" y="37" type="curve" smooth="yes"/>
      <point x="389" y="37" type="line"/>
      <point x="379" y="0" type="line"/>
      <point x="667" y="0" type="line"/>
      <point x="677" y="37" type="line"/>
      <point x="642" y="37" type="line" smooth="yes"/>
      <point x="593" y="37"/>
      <point x="585" y="60"/>
      <point x="567" y="104" type="curve" smooth="yes"/>
      <point x="526" y="202"/>
      <point x="485" y="300"/>
      <point x="445" y="398" type="curve"/>
      <point x="442" y="398" type="line"/>
      <point x="684" y="598" type="line" smooth="yes"/>
      <point x="727" y="633"/>
      <point x="763" y="643"/>
      <point x="786" y="643" type="curve" smooth="yes"/>
      <point x="811" y="643" type="line"/>
      <point x="822" y="680" type="line"/>
      <point x="537" y="680" type="line"/>
      <point x="526" y="643" type="line"/>
      <point x="564" y="643" type="line" smooth="yes"/>
      <point x="592" y="643"/>
      <point x="604" y="634"/>
      <point x="604" y="620" type="curve" smooth="yes"/>
      <point x="604" y="603"/>
      <point x="587" y="580"/>
      <point x="559" y="558" type="curve"/>
      <point x="465" y="480"/>
      <point x="373" y="405"/>
      <point x="279" y="327" type="curve"/>
      <point x="356" y="595" type="line" smooth="yes"/>
      <point x="366" y="630"/>
      <point x="382" y="645"/>
      <point x="410" y="645" type="curve" smooth="yes"/>
      <point x="455" y="645" type="line"/>
      <point x="465" y="680" type="line"/>
      <point x="165" y="680" type="line"/>
      <point x="155" y="645" type="line"/>
      <point x="210" y="645" type="line" smooth="yes"/>
      <point x="230" y="645"/>
      <point x="239" y="636"/>
      <point x="239" y="616" type="curve" smooth="yes"/>
      <point x="239" y="609"/>
      <point x="238" y="602"/>
      <point x="236" y="595" type="curve" smooth="yes"/>
      <point x="89" y="85" type="line" smooth="yes"/>
      <point x="79" y="50"/>
      <point x="63" y="35"/>
      <point x="35" y="35" type="curve" smooth="yes"/>
      <point x="-10" y="35" type="line"/>
      <point x="-20" y="0" type="line"/>
      <point x="280" y="0" type="line"/>
      <point x="290" y="35" type="line"/>
      <point x="235" y="35" type="line" smooth="yes"/>
      <point x="216" y="35"/>
      <point x="207" y="44"/>
      <point x="207" y="63" type="curve" smooth="yes"/>
      <point x="207" y="70"/>
      <point x="208" y="77"/>
      <point x="210" y="85" type="curve" smooth="yes"/>
    </contour>
  </outline>
</glyph>
<glyph name="M" format="2">
  <advance width="842"/>
  <unicode hex="004D"/>
  <outline>
    <contour>
      <point x="162" y="85" type="curve" smooth="yes"/>
      <point x="204" y="232"/>
      <point x="247" y="380"/>
      <point x="289" y="527" type="curve" smooth="yes"/>
      <point x="299" y="562"/>
      <point x="305" y="578"/>
      <point x="307" y="578" type="curve"/>
      <point x="308" y="578"/>
      <point x="309" y="561"/>
      <point x="310" y="532" type="curve" smooth="yes"/>
      <point x="311" y="484"/>
      <point x="312" y="437"/>
      <point x="314" y="389" type="curve"/>
      <point x="314" y="264"/>
      <point x="313" y="140"/>
      <point x="308" y="15" type="curve"/>
      <point x="350" y="15" type="line"/>
      <point x="353" y="20" type="line" smooth="yes"/>
      <point x="445" y="179"/>
      <point x="538" y="338"/>
      <point x="639" y="491" type="curve" smooth="yes"/>
      <point x="652" y="511"/>
      <point x="659" y="520"/>
      <point x="660" y="520" type="curve"/>
      <point x="658" y="520"/>
      <point x="656" y="516"/>
      <point x="656" y="509" type="curve" smooth="yes"/>
      <point x="656" y="504"/>
      <point x="656" y="499"/>
      <point x="654" y="494" type="curve"/>
      <point x="536" y="85" type="line" smooth="yes"/>
      <point x="526" y="50"/>
      <point x="510" y="35"/>
      <point x="482" y="35" type="curve" smooth="yes"/>
      <point x="437" y="35" type="line"/>
      <point x="427" y="0" type="line"/>
      <point x="727" y="0" type="line"/>
      <point x="737" y="35" type="line"/>
      <point x="682" y="35" type="line" smooth="yes"/>
      <point x="662" y="35"/>
      <point x="653" y="44"/>
      <point x="653" y="64" type="curve" smooth="yes"/>
      <point x="653" y="71"/>
      <point x="654" y="78"/>
      <point x="656" y="85" type="curve" smooth="yes"/>
      <point x="802" y="595" type="line" smooth="yes"/>
      <point x="812" y="630"/>
      <point x="829" y="645"/>
      <point x="857" y="645" type="curve" smooth="yes"/>
      <point x="902" y="645" type="line"/>
      <point x="912" y="680" type="line"/>
      <point x="694" y="680" type="line"/>
      <point x="694" y="680"/>
      <point x="530" y="420"/>
      <point x="432" y="267" type="curve"/>
      <point x="424" y="680" type="line"/>
      <point x="169" y="680" type="line"/>
      <point x="159" y="645" type="line"/>
      <point x="187" y="645" type="line" smooth="yes"/>
      <point x="223" y="645"/>
      <point x="243" y="636"/>
      <point x="243" y="600" type="curve" smooth="yes"/>
      <point x="243" y="588"/>
      <point x="241" y="574"/>
      <point x="236" y="558" type="curve" smooth="yes"/>
      <point x="99" y="85" type="line" smooth="yes"/>
      <point x="89" y="50"/>
      <point x="73" y="35"/>
      <point x="45" y="35" type="curve" smooth="yes"/>
      <point x="-10" y="35" type="line"/>
      <point x="-20" y="0" type="line"/>
      <point x="243" y="0" type="line"/>
      <point x="253" y="35" type="line"/>
      <point x="188" y="35" type="line" smooth="yes"/>
      <point x="168" y="35"/>
      <point x="159" y="44"/>
      <point x="159" y="64" type="curve" smooth="yes"/>
      <point x="159" y="71"/>
      <point x="160" y="78"/>
    </contour>
  </outline>
</glyph>
<glyph name="P" format="2">
  <advance width="630"/>
  <unicode hex="0050"/>
  <outline>
    <contour>
      <point x="204" y="85" type="line"/>
      <point x="227" y="166"/>
      <point x="251" y="247"/>
      <point x="274" y="328" type="curve"/>
      <point x="264" y="328" type="line"/>
      <point x="348" y="328" type="line" smooth="yes"/>
      <point x="479" y="328"/>
      <point x="650" y="375"/>
      <point x="650" y="534" type="curve" smooth="yes"/>
      <point x="650" y="623"/>
      <point x="581" y="680"/>
      <point x="450" y="680" type="curve" smooth="yes"/>
      <point x="155" y="680" type="line"/>
      <point x="145" y="645" type="line"/>
      <point x="205" y="645" type="line" smooth="yes"/>
      <point x="225" y="645"/>
      <point x="235" y="636"/>
      <point x="235" y="616" type="curve" smooth="yes"/>
      <point x="235" y="610"/>
      <point x="233" y="604"/>
      <point x="232" y="598" type="curve"/>
      <point x="84" y="85" type="line" smooth="yes"/>
      <point x="74" y="50"/>
      <point x="58" y="35"/>
      <point x="30" y="35" type="curve" smooth="yes"/>
      <point x="-10" y="35" type="line"/>
      <point x="-20" y="0" type="line"/>
      <point x="300" y="0" type="line"/>
      <point x="310" y="35" type="line"/>
      <point x="230" y="35" type="line" smooth="yes"/>
      <point x="210" y="35"/>
      <point x="200" y="44"/>
      <point x="200" y="64" type="curve" smooth="yes"/>
      <point x="200" y="70"/>
      <point x="202" y="76"/>
      <point x="203" y="82" type="curve"/>
    </contour>
    <contour>
      <point x="284" y="364" type="line"/>
      <point x="353" y="604" type="line" smooth="yes"/>
      <point x="362" y="636"/>
      <point x="405" y="644"/>
      <point x="423" y="644" type="curve" smooth="yes"/>
      <point x="430" y="644" type="line" smooth="yes"/>
      <point x="480" y="644"/>
      <point x="516" y="625"/>
      <point x="516" y="561" type="curve" smooth="yes"/>
      <point x="516" y="544"/>
      <point x="513" y="525"/>
      <point x="508" y="504" type="curve" smooth="yes"/>
      <point x="481" y="392"/>
      <point x="415" y="364"/>
      <point x="350" y="364" type="curve" smooth="yes"/>
    </contour>
  </outline>
</glyph>
<glyph name="T" format="2">
  <advance width="603"/>
  <unicode hex="0054"/>
  <outline>
    <contour>
      <point x="306" y="85" type="curve" smooth="yes"/>
      <point x="455" y="604" type="line" smooth="yes"/>
      <point x="464" y="636"/>
      <point x="485" y="644"/>
      <point x="511" y="644" type="curve" smooth="yes"/>
      <point x="563" y="644"/>
      <point x="580" y="564"/>
      <point x="580" y="475" type="curve" smooth="yes"/>
      <point x="580" y="460"/>
      <point x="580" y="445"/>
      <point x="579" y="430" type="curve"/>
      <point x="628" y="430" type="line"/>
      <point x="693" y="680" type="line"/>
      <point x="131" y="680" type="line"/>
      <point x="60" y="429" type="line"/>
      <point x="108" y="429" type="line"/>
      <point x="162" y="535"/>
      <point x="231" y="644"/>
      <point x="297" y="644" type="curve" smooth="yes"/>
      <point x="319" y="644"/>
      <point x="331" y="639"/>
      <point x="331" y="620" type="curve" smooth="yes"/>
      <point x="331" y="614"/>
      <point x="331" y="609"/>
      <point x="329" y="604" type="curve"/>
      <point x="280" y="431"/>
      <point x="230" y="258"/>
      <point x="181" y="85" type="curve" smooth="yes"/>
      <point x="171" y="50"/>
      <point x="155" y="35"/>
      <point x="127" y="35" type="curve" smooth="yes"/>
      <point x="77" y="35" type="line"/>
      <point x="66" y="0" type="line"/>
      <point x="382" y="0" type="line"/>
      <point x="392" y="35" type="line"/>
      <point x="332" y="35" type="line" smooth="yes"/>
      <point x="312" y="35"/>
      <point x="303" y="44"/>
      <point x="303" y="64" type="curve" smooth="yes"/>
      <point x="303" y="71"/>
      <point x="304" y="78"/>
    </contour>
  </outline>
</glyph>
<glyph name="b" format="2">
  <advance width="509"/>
  <unicode hex="0062"/>
  <outline>
    <contour>
      <point x="332" y="424" type="curve" smooth="yes"/>
      <point x="351" y="424"/>
      <point x="360" y="407"/>
      <point x="360" y="374" type="curve" smooth="yes"/>
      <point x="360" y="280"/>
      <point x="267" y="15"/>
      <point x="163" y="15" type="curve" smooth="yes"/>
      <point x="143" y="15"/>
      <point x="134" y="34"/>
      <point x="134" y="67" type="curve" smooth="yes"/>
      <point x="134" y="99"/>
      <point x="145" y="142"/>
      <point x="161" y="190" type="curve" smooth="yes"/>
      <point x="172" y="224" type="line" smooth="yes"/>
      <point x="201" y="312"/>
      <point x="278" y="424"/>
    </contour>
    <contour>
      <point x="217" y="385" type="curve"/>
      <point x="225" y="385" type="line"/>
      <point x="216" y="385" type="line"/>
      <point x="226" y="385" type="line"/>
      <point x="320" y="675" type="line"/>
      <point x="109" y="661" type="line"/>
      <point x="100" y="631" type="line"/>
      <point x="147" y="631" type="line" smooth="yes"/>
      <point x="168" y="631"/>
      <point x="184" y="629"/>
      <point x="184" y="605" type="curve" smooth="yes"/>
      <point x="184" y="596"/>
      <point x="182" y="587"/>
      <point x="178" y="576" type="curve" smooth="yes"/>
      <point x="64" y="225" type="line" smooth="yes"/>
      <point x="53" y="190"/>
      <point x="45" y="152"/>
      <point x="45" y="118" type="curve" smooth="yes"/>
      <point x="45" y="48"/>
      <point x="77" y="-12"/>
      <point x="176" y="-12" type="curve" smooth="yes"/>
      <point x="301" y="-12"/>
      <point x="464" y="158"/>
      <point x="464" y="331" type="curve" smooth="yes"/>
      <point x="464" y="401"/>
      <point x="429" y="462"/>
      <point x="352" y="462" type="curve" smooth="yes"/>
      <point x="300" y="462"/>
      <point x="251" y="424"/>
    </contour>
  </outline>
</glyph>
<glyph name="braceright" format="2">
  <advance width="436"/>
  <unicode hex="007D"/>
  <outline>
    <contour>
      <point x="-8" y="-165" type="line"/>
      <point x="31" y="-154"/>
      <point x="60" y="-141"/>
      <point x="78" y="-131" type="curve"/>
      <point x="112" y="-109"/>
      <point x="131" y="-70"/>
      <point x="132" y="3" type="curve"/>
      <point x="132" y="64" type="line"/>
      <point x="136" y="163"/>
      <point x="174" y="247"/>
      <point x="275" y="277" type="curve"/>
      <point x="276" y="279" type="line"/>
      <point x="278" y="270" type="line"/>
      <point x="240" y="286"/>
      <point x="211" y="314"/>
      <point x="211" y="369" type="curve" smooth="yes"/>
      <point x="211" y="420"/>
      <point x="233" y="465"/>
      <point x="270" y="533" type="curve" smooth="yes"/>
      <point x="301" y="587"/>
      <point x="313" y="617"/>
      <point x="313" y="643" type="curve" smooth="yes"/>
      <point x="313" y="677"/>
      <point x="284" y="695"/>
      <point x="231" y="715" type="curve"/>
      <point x="255" y="748" type="line"/>
      <point x="334" y="719"/>
      <point x="373" y="676"/>
      <point x="373" y="616" type="curve" smooth="yes"/>
      <point x="373" y="571"/>
      <point x="356" y="532"/>
      <point x="316" y="461" type="curve" smooth="yes"/>
      <point x="287" y="405"/>
      <point x="269" y="369"/>
      <point x="269" y="335" type="curve" smooth="yes"/>
      <point x="269" y="299"/>
      <point x="300" y="289"/>
      <point x="360" y="289" type="curve"/>
      <point x="352" y="260" type="line"/>
      <point x="250" y="260"/>
      <point x="217" y="226"/>
      <point x="217" y="115" type="curve" smooth="yes"/>
      <point x="217" y="66" type="line" smooth="yes"/>
      <point x="217" y="-82"/>
      <point x="141" y="-156"/>
      <point x="0" y="-199" type="curve"/>
    </contour>
  </outline>
</glyph>
<glyph name="cent" format="2">
  <advance width="599"/>
  <unicode hex="00A2"/>
  <outline>
    <contour>
      <point x="242" y="-7" type="line"/>
      <point x="180" y="13"/>
      <point x="139" y="83"/>
      <point x="139" y="165" type="curve" smooth="yes"/>
      <point x="139" y="252"/>
      <point x="170" y="329"/>
      <point x="229" y="393" type="curve"/>
      <point x="276" y="441"/>
      <point x="316" y="466"/>
      <point x="372" y="470" type="curve"/>
      <point x="405" y="591" type="line"/>
      <point x="440" y="591" type="line"/>
      <point x="407" y="470" type="line"/>
      <point x="454" y="467"/>
      <point x="507" y="429"/>
      <point x="507" y="365" type="curve" smooth="yes"/>
      <point x="507" y="321"/>
      <point x="479" y="289"/>
      <point x="443" y="289" type="curve" smooth="yes"/>
      <point x="416" y="289"/>
      <point x="399" y="307"/>
      <point x="399" y="329" type="curve" smooth="yes"/>
      <point x="399" y="347"/>
      <point x="411" y="366"/>
      <point x="434" y="382" type="curve"/>
      <point x="439" y="387"/>
      <point x="443" y="394"/>
      <point x="443" y="401" type="curve" smooth="yes"/>
      <point x="443" y="421"/>
      <point x="427" y="435"/>
      <point x="397" y="436" type="curve"/>
      <point x="284" y="22" type="line"/>
      <point x="285" y="22" type="line"/>
      <point x="349" y="22"/>
      <point x="405" y="71"/>
      <point x="437" y="138" type="curve"/>
      <point x="468" y="128" type="line"/>
      <point x="431" y="52"/>
      <point x="369" y="-12"/>
      <point x="279" y="-12" type="curve" smooth="yes"/>
      <point x="275" y="-12" type="line"/>
      <point x="245" y="-121" type="line"/>
      <point x="210" y="-121" type="line"/>
    </contour>
    <contour>
      <point x="362" y="435" type="line"/>
      <point x="303" y="422"/>
      <point x="263" y="311"/>
      <point x="248" y="263" type="curve" smooth="yes"/>
      <point x="231" y="208"/>
      <point x="222" y="155"/>
      <point x="222" y="104" type="curve" smooth="yes"/>
      <point x="222" y="69"/>
      <point x="232" y="43"/>
      <point x="252" y="31" type="curve"/>
    </contour>
  </outline>
</glyph>
<glyph name="onehalf" format="2">
  <advance width="868"/>
  <unicode hex="00BD"/>
  <outline>
    <contour>
      <point x="257" y="-20" type="line"/>
      <point x="222" y="4" type="line"/>
      <point x="672" y="720" type="line"/>
      <point x="706" y="696" type="line"/>
    </contour>
    <contour>
      <point x="121" y="316" type="line"/>
      <point x="180" y="316" type="line" smooth="yes"/>
      <point x="189" y="316"/>
      <point x="195" y="319"/>
      <point x="197" y="328" type="curve"/>
      <point x="275" y="601" type="line"/>
      <point x="256" y="592"/>
      <point x="234" y="586"/>
      <point x="204" y="580" type="curve"/>
      <point x="199" y="611" type="line"/>
      <point x="251" y="620"/>
      <point x="311" y="654"/>
      <point x="347" y="709" type="curve"/>
      <point x="379" y="709" type="line"/>
      <point x="271" y="324" type="line"/>
      <point x="270" y="324"/>
      <point x="270" y="323"/>
      <point x="270" y="321" type="curve"/>
      <point x="270" y="318"/>
      <point x="273" y="316"/>
      <point x="279" y="316" type="curve" smooth="yes"/>
      <point x="342" y="316" type="line"/>
      <point x="332" y="283" type="line"/>
      <point x="111" y="283" type="line"/>
    </contour>
    <contour>
      <point x="678" y="-10" type="curve" smooth="yes"/>
      <point x="644" y="-10"/>
      <point x="622" y="8"/>
      <point x="593" y="40" type="curve" smooth="yes"/>
      <point x="577" y="59"/>
      <point x="564" y="71"/>
      <point x="553" y="71" type="curve" smooth="yes"/>
      <point x="536" y="71"/>
      <point x="522" y="67"/>
      <point x="522" y="50" type="curve" smooth="yes"/>
      <point x="522" y="46"/>
      <point x="524" y="42"/>
      <point x="527" y="39" type="curve" smooth="yes"/>
      <point x="532" y="32"/>
      <point x="534" y="25"/>
      <point x="534" y="19" type="curve" smooth="yes"/>
      <point x="534" y="1"/>
      <point x="525" y="-9"/>
      <point x="509" y="-9" type="curve" smooth="yes"/>
      <point x="490" y="-9"/>
      <point x="480" y="1"/>
      <point x="480" y="19" type="curve" smooth="yes"/>
      <point x="480" y="81"/>
      <point x="517" y="119"/>
      <point x="581" y="151" type="curve"/>
      <point x="666" y="195" type="line" smooth="yes"/>
      <point x="713" y="221"/>
      <point x="769" y="268"/>
      <point x="769" y="326" type="curve" smooth="yes"/>
      <point x="769" y="370"/>
      <point x="747" y="402"/>
      <point x="697" y="402" type="curve" smooth="yes"/>
      <point x="653" y="402"/>
      <point x="609" y="362"/>
      <point x="609" y="334" type="curve" smooth="yes"/>
      <point x="609" y="326"/>
      <point x="610" y="323"/>
      <point x="612" y="323" type="curve"/>
      <point x="615" y="323"/>
      <point x="618" y="325"/>
      <point x="621" y="327" type="curve" smooth="yes"/>
      <point x="626" y="331"/>
      <point x="631" y="332"/>
      <point x="637" y="332" type="curve" smooth="yes"/>
      <point x="656" y="332"/>
      <point x="670" y="320"/>
      <point x="670" y="299" type="curve" smooth="yes"/>
      <point x="670" y="273"/>
      <point x="648" y="250"/>
      <point x="622" y="250" type="curve" smooth="yes"/>
      <point x="588" y="250"/>
      <point x="569" y="276"/>
      <point x="569" y="310" type="curve" smooth="yes"/>
      <point x="569" y="376"/>
      <point x="637" y="436"/>
      <point x="711" y="436" type="curve" smooth="yes"/>
      <point x="791" y="436"/>
      <point x="844" y="389"/>
      <point x="844" y="322" type="curve" smooth="yes"/>
      <point x="844" y="242"/>
      <point x="766" y="203"/>
      <point x="702" y="173" type="curve" smooth="yes"/>
      <point x="669" y="159"/>
      <point x="635" y="142"/>
      <point x="602" y="126" type="curve"/>
      <point x="581" y="117"/>
      <point x="571" y="109"/>
      <point x="571" y="103" type="curve" smooth="yes"/>
      <point x="571" y="83"/>
      <point x="675" y="67"/>
      <point x="692" y="67" type="curve" smooth="yes"/>
      <point x="718" y="67"/>
      <point x="747" y="87"/>
      <point x="760" y="106" type="curve"/>
      <point x="773" y="134" type="line"/>
      <point x="794" y="134" type="line"/>
      <point x="764" y="49"/>
      <point x="733" y="-10"/>
    </contour>
  </outline>
</glyph>
<glyph name="threequarters" format="2">
  <advance width="866"/>
  <unicode hex="00BE"/>
  <outline>
    <contour>
      <point x="190" y="272" type="curve" smooth="yes"/>
      <point x="121" y="272"/>
      <point x="78" y="314"/>
      <point x="78" y="376" type="curve" smooth="yes"/>
      <point x="78" y="420"/>
      <point x="110" y="444"/>
      <point x="139" y="444" type="curve" smooth="yes"/>
      <point x="167" y="444"/>
      <point x="180" y="430"/>
      <point x="180" y="401" type="curve" smooth="yes"/>
      <point x="180" y="379"/>
      <point x="166" y="365"/>
      <point x="140" y="365" type="curve" smooth="yes"/>
      <point x="130" y="365"/>
      <point x="123" y="365"/>
      <point x="123" y="359" type="curve" smooth="yes"/>
      <point x="123" y="327"/>
      <point x="152" y="307"/>
      <point x="191" y="307" type="curve" smooth="yes"/>
      <point x="259" y="307"/>
      <point x="300" y="370"/>
      <point x="300" y="433" type="curve" smooth="yes"/>
      <point x="300" y="483"/>
      <point x="288" y="497"/>
      <point x="244" y="497" type="curve" smooth="yes"/>
      <point x="237" y="497"/>
      <point x="229" y="494"/>
      <point x="221" y="489" type="curve" smooth="yes"/>
      <point x="211" y="482"/>
      <point x="201" y="477"/>
      <point x="189" y="477" type="curve" smooth="yes"/>
      <point x="174" y="477"/>
      <point x="163" y="489"/>
      <point x="163" y="504" type="curve" smooth="yes"/>
      <point x="163" y="517"/>
      <point x="172" y="530"/>
      <point x="189" y="530" type="curve" smooth="yes"/>
      <point x="264" y="530" type="line" smooth="yes"/>
      <point x="312" y="530"/>
      <point x="346" y="585"/>
      <point x="346" y="629" type="curve" smooth="yes"/>
      <point x="346" y="673"/>
      <point x="326" y="688"/>
      <point x="283" y="688" type="curve" smooth="yes"/>
      <point x="242" y="688"/>
      <point x="204" y="668"/>
      <point x="204" y="642" type="curve" smooth="yes"/>
      <point x="204" y="636"/>
      <point x="201" y="638"/>
      <point x="204" y="638" type="curve"/>
      <point x="220" y="642" type="line"/>
      <point x="241" y="642"/>
      <point x="251" y="631"/>
      <point x="251" y="610" type="curve" smooth="yes"/>
      <point x="251" y="586"/>
      <point x="237" y="567"/>
      <point x="210" y="567" type="curve" smooth="yes"/>
      <point x="179" y="567"/>
      <point x="163" y="588"/>
      <point x="163" y="618" type="curve" smooth="yes"/>
      <point x="163" y="682"/>
      <point x="230" y="718"/>
      <point x="287" y="718" type="curve" smooth="yes"/>
      <point x="362" y="718"/>
      <point x="415" y="684"/>
      <point x="415" y="621" type="curve" smooth="yes"/>
      <point x="415" y="561"/>
      <point x="358" y="519"/>
      <point x="303" y="510" type="curve"/>
      <point x="299" y="516" type="line"/>
      <point x="344" y="503"/>
      <point x="375" y="480"/>
      <point x="375" y="426" type="curve" smooth="yes"/>
      <point x="375" y="337"/>
      <point x="279" y="272"/>
    </contour>
    <contour>
      <point x="254" y="-20" type="line"/>
      <point x="219" y="4" type="line"/>
      <point x="669" y="720" type="line"/>
      <point x="703" y="696" type="line"/>
    </contour>
    <contour>
      <point x="561" y="35" type="line"/>
      <point x="623" y="35" type="line" smooth="yes"/>
      <point x="632" y="35"/>
      <point x="637" y="38"/>
      <point x="639" y="46" type="curve" smooth="yes"/>
      <point x="657" y="113" type="line"/>
      <point x="496" y="113" type="line"/>
      <point x="507" y="147" type="line"/>
      <point x="639" y="270" type="line" smooth="yes"/>
      <point x="690" y="317"/>
      <point x="727" y="379"/>
      <point x="735" y="430" type="curve"/>
      <point x="818" y="430" type="line"/>
      <point x="805" y="374"/>
      <point x="780" y="347"/>
      <point x="739" y="309" type="curve" smooth="yes"/>
      <point x="560" y="149" type="line"/>
      <point x="667" y="149" type="line"/>
      <point x="697" y="248" type="line"/>
      <point x="731" y="269"/>
      <point x="757" y="302"/>
      <point x="771" y="334" type="curve"/>
      <point x="792" y="334" type="line"/>
      <point x="743" y="149" type="line"/>
      <point x="844" y="149" type="line"/>
      <point x="834" y="113" type="line"/>
      <point x="732" y="113" type="line"/>
      <point x="712" y="37" type="line"/>
      <point x="713" y="36"/>
      <point x="715" y="35"/>
      <point x="719" y="35" type="curve" smooth="yes"/>
      <point x="784" y="35" type="line"/>
      <point x="777" y="0" type="line"/>
      <point x="553" y="0" type="line"/>
    </contour>
  </outline>
</glyph>
<glyph name="Acircumflex" format="2">
  <advance width="661"/>
  <unicode hex="00C2"/>
  <outline>
    <contour>
      <point x="411" y="856" type="line"/>
      <point x="383" y="814"/>
      <point x="321" y="739"/>
      <point x="288" y="710" type="curve"/>
      <point x="298" y="683" type="line"/>
      <point x="338" y="707"/>
      <point x="397" y="748"/>
      <point x="442" y="782" type="curve"/>
      <point x="474" y="744"/>
      <point x="510" y="709"/>
      <point x="539" y="680" type="curve"/>
      <point x="573" y="692" type="line"/>
      <point x="548" y="730"/>
      <point x="508" y="810"/>
      <point x="491" y="856" type="curve"/>
    </contour>
    <contour>
      <point x="209" y="252" type="line"/>
      <point x="373" y="531" type="line"/>
      <point x="403" y="252" type="line"/>
      <point x="413" y="252" type="line"/>
    </contour>
    <contour>
      <point x="188" y="217" type="line"/>
      <point x="407" y="217" type="line"/>
      <point x="418" y="109" type="line"/>
      <point x="418" y="102"/>
      <point x="419" y="96"/>
      <point x="419" y="90" type="curve" smooth="yes"/>
      <point x="419" y="47"/>
      <point x="402" y="35"/>
      <point x="366" y="35" type="curve" smooth="yes"/>
      <point x="328" y="35" type="line"/>
      <point x="318" y="0" type="line"/>
      <point x="633" y="0" type="line"/>
      <point x="643" y="35" type="line"/>
      <point x="599" y="35" type="line" smooth="yes"/>
      <point x="572" y="35"/>
      <point x="551" y="42"/>
      <point x="543" y="106" type="curve" smooth="yes"/>
      <point x="471" y="692" type="line"/>
      <point x="403" y="692" type="line"/>
      <point x="64" y="116" type="line" smooth="yes"/>
      <point x="18" y="36"/>
      <point x="-14" y="35"/>
      <point x="-45" y="35" type="curve" smooth="yes"/>
      <point x="-80" y="35" type="line"/>
      <point x="-90" y="0" type="line"/>
      <point x="185" y="0" type="line"/>
      <point x="195" y="35" type="line"/>
      <point x="158" y="35" type="line" smooth="yes"/>
      <point x="126" y="35"/>
      <point x="108" y="40"/>
      <point x="108" y="62" type="curve" smooth="yes"/>
      <point x="108" y="76"/>
      <point x="115" y="93"/>
      <point x="129" y="117" type="curve" smooth="yes"/>
    </contour>
  </outline>
</glyph>
<glyph name="Ntilde" format="2">
  <advance width="661"/>
  <unicode hex="00D1"/>
  <outline>
    <contour>
      <point x="729" y="595" type="line" smooth="yes"/>
      <point x="739" y="630"/>
      <point x="755" y="645"/>
      <point x="783" y="645" type="curve" smooth="yes"/>
      <point x="838" y="645" type="line"/>
      <point x="848" y="680" type="line"/>
      <point x="586" y="680" type="line"/>
      <point x="576" y="645" type="line"/>
      <point x="641" y="645" type="line" smooth="yes"/>
      <point x="660" y="645"/>
      <point x="670" y="635"/>
      <point x="670" y="616" type="curve" smooth="yes"/>
      <point x="670" y="610"/>
      <point x="669" y="602"/>
      <point x="667" y="595" type="curve" smooth="yes"/>
      <point x="630" y="466"/>
      <point x="593" y="337"/>
      <point x="556" y="208" type="curve"/>
      <point x="374" y="680" type="line"/>
      <point x="157" y="680" type="line"/>
      <point x="148" y="648" type="line"/>
      <point x="176" y="648" type="line" smooth="yes"/>
      <point x="198" y="648"/>
      <point x="237" y="635"/>
      <point x="237" y="582" type="curve" smooth="yes"/>
      <point x="237" y="571"/>
      <point x="235" y="560"/>
      <point x="232" y="548" type="curve" smooth="yes"/>
      <point x="99" y="85" type="line" smooth="yes"/>
      <point x="89" y="50"/>
      <point x="73" y="35"/>
      <point x="45" y="35" type="curve" smooth="yes"/>
      <point x="-10" y="35" type="line"/>
      <point x="-20" y="0" type="line"/>
      <point x="242" y="0" type="line"/>
      <point x="252" y="35" type="line"/>
      <point x="187" y="35" type="line" smooth="yes"/>
      <point x="167" y="35"/>
      <point x="158" y="44"/>
      <point x="158" y="64" type="curve" smooth="yes"/>
      <point x="158" y="71"/>
      <point x="159" y="78"/>
      <point x="161" y="85" type="curve" smooth="yes"/>
      <point x="276" y="487" type="line" smooth="yes"/>
      <point x="285" y="520"/>
      <point x="291" y="536"/>
      <point x="293" y="536" type="curve"/>
      <point x="296" y="536"/>
      <point x="303" y="519"/>
      <point x="315" y="488" type="curve" smooth="yes"/>
      <point x="507" y="-12" type="line"/>
      <point x="554" y="-12" type="line"/>
    </contour>
    <contour>
      <point x="417" y="752" type="curve" smooth="yes"/>
      <point x="429" y="752"/>
      <point x="450" y="739"/>
      <point x="472" y="724" type="curve"/>
      <point x="498" y="708"/>
      <point x="527" y="690"/>
      <point x="559" y="690" type="curve" smooth="yes"/>
      <point x="617" y="690"/>
      <point x="653" y="745"/>
      <point x="669" y="786" type="curve"/>
      <point x="631" y="800" type="line"/>
      <point x="618" y="773"/>
      <point x="601" y="748"/>
      <point x="582" y="748" type="curve" smooth="yes"/>
      <point x="570" y="748"/>
      <point x="549" y="761"/>
      <point x="527" y="776" type="curve"/>
      <point x="501" y="792"/>
      <point x="472" y="810"/>
      <point x="440" y="810" type="curve" smooth="yes"/>
      <point x="382" y="810"/>
      <point x="346" y="755"/>
      <point x="330" y="714" type="curve"/>
      <point x="368" y="700" type="line"/>
      <point x="381" y="727"/>
      <point x="398" y="752"/>
    </contour>
  </outline>
</glyph>
<glyph name="Ocircumflex" format="2">
  <advance width="700"/>
  <unicode hex="00D4"/>
  <outline>
    <contour>
      <point x="418" y="856" type="line"/>
      <point x="390" y="814"/>
      <point x="328" y="739"/>
      <point x="295" y="710" type="curve"/>
      <point x="305" y="683" type="line"/>
      <point x="345" y="707"/>
      <point x="404" y="748"/>
      <point x="449" y="782" type="curve"/>
      <point x="481" y="744"/>
      <point x="517" y="709"/>
      <point x="546" y="680" type="curve"/>
      <point x="580" y="692" type="line"/>
      <point x="555" y="730"/>
      <point x="515" y="810"/>
      <point x="498" y="856" type="curve"/>
    </contour>
    <contour>
      <point x="506" y="523" type="curve" smooth="yes"/>
      <point x="506" y="468"/>
      <point x="494" y="409"/>
      <point x="482" y="369" type="curve" smooth="yes"/>
      <point x="454" y="273" type="line" smooth="yes"/>
      <point x="427" y="182"/>
      <point x="360" y="26"/>
      <point x="267" y="26" type="curve" smooth="yes"/>
      <point x="200" y="26"/>
      <point x="180" y="88"/>
      <point x="180" y="160" type="curve" smooth="yes"/>
      <point x="180" y="211"/>
      <point x="190" y="266"/>
      <point x="202" y="306" type="curve" smooth="yes"/>
      <point x="211" y="338"/>
      <point x="220" y="370"/>
      <point x="229" y="402" type="curve" smooth="yes"/>
      <point x="255" y="494"/>
      <point x="326" y="658"/>
      <point x="421" y="658" type="curve" smooth="yes"/>
      <point x="486" y="658"/>
      <point x="506" y="595"/>
    </contour>
    <contour>
      <point x="445" y="690" type="curve"/>
      <point x="443" y="690" type="line"/>
      <point x="434" y="691"/>
      <point x="425" y="692"/>
      <point x="415" y="692" type="curve" smooth="yes"/>
      <point x="261" y="692"/>
      <point x="117" y="536"/>
      <point x="70" y="371" type="curve" smooth="yes"/>
      <point x="57" y="323"/>
      <point x="50" y="278"/>
      <point x="50" y="237" type="curve" smooth="yes"/>
      <point x="50" y="101"/>
      <point x="128" y="-12"/>
      <point x="272" y="-12" type="curve" smooth="yes"/>
      <point x="426" y="-12"/>
      <point x="569" y="141"/>
      <point x="616" y="306" type="curve" smooth="yes"/>
      <point x="630" y="354"/>
      <point x="636" y="400"/>
      <point x="636" y="442" type="curve" smooth="yes"/>
      <point x="636" y="572"/>
      <point x="570" y="672"/>
    </contour>
  </outline>
</glyph>
<glyph name="Otilde" format="2">
  <advance width="700"/>
  <unicode hex="00D5"/>
  <outline>
    <contour>
      <point x="397" y="752" type="curve" smooth="yes"/>
      <point x="409" y="752"/>
      <point x="430" y="739"/>
      <point x="452" y="724" type="curve"/>
      <point x="478" y="708"/>
      <point x="507" y="690"/>
      <point x="539" y="690" type="curve" smooth="yes"/>
      <point x="597" y="690"/>
      <point x="633" y="745"/>
      <point x="649" y="786" type="curve"/>
      <point x="611" y="800" type="line"/>
      <point x="598" y="773"/>
      <point x="581" y="748"/>
      <point x="562" y="748" type="curve" smooth="yes"/>
      <point x="550" y="748"/>
      <point x="529" y="761"/>
      <point x="507" y="776" type="curve"/>
      <point x="481" y="792"/>
      <point x="452" y="810"/>
      <point x="420" y="810" type="curve" smooth="yes"/>
      <point x="362" y="810"/>
      <point x="326" y="755"/>
      <point x="310" y="714" type="curve"/>
      <point x="348" y="700" type="line"/>
      <point x="361" y="727"/>
      <point x="378" y="752"/>
    </contour>
    <contour>
      <point x="506" y="523" type="curve" smooth="yes"/>
      <point x="506" y="468"/>
      <point x="494" y="409"/>
      <point x="482" y="369" type="curve" smooth="yes"/>
      <point x="454" y="273" type="line" smooth="yes"/>
      <point x="427" y="182"/>
      <point x="360" y="26"/>
      <point x="267" y="26" type="curve" smooth="yes"/>
      <point x="200" y="26"/>
      <point x="180" y="88"/>
      <point x="180" y="160" type="curve" smooth="yes"/>
      <point x="180" y="211"/>
      <point x="190" y="266"/>
      <point x="202" y="306" type="curve" smooth="yes"/>
      <point x="211" y="338"/>
      <point x="220" y="370"/>
      <point x="229" y="402" type="curve" smooth="yes"/>
      <point x="255" y="494"/>
      <point x="326" y="658"/>
      <point x="421" y="658" type="curve" smooth="yes"/>
      <point x="486" y="658"/>
      <point x="506" y="595"/>
    </contour>
    <contour>
      <point x="445" y="690" type="curve"/>
      <point x="443" y="690" type="line"/>
      <point x="434" y="691"/>
      <point x="425" y="692"/>
      <point x="415" y="692" type="curve" smooth="yes"/>
      <point x="261" y="692"/>
      <point x="117" y="536"/>
      <point x="70" y="371" type="curve" smooth="yes"/>
      <point x="57" y="323"/>
      <point x="50" y="278"/>
      <point x="50" y="237" type="curve" smooth="yes"/>
      <point x="50" y="101"/>
      <point x="128" y="-12"/>
      <point x="272" y="-12" type="curve" smooth="yes"/>
      <point x="426" y="-12"/>
      <point x="569" y="141"/>
      <point x="616" y="306" type="curve" smooth="yes"/>
      <point x="630" y="354"/>
      <point x="636" y="400"/>
      <point x="636" y="442" type="curve" smooth="yes"/>
      <point x="636" y="572"/>
      <point x="570" y="672"/>
    </contour>
  </outline>
</glyph>
<glyph name="Ugrave" format="2">
  <advance width="742"/>
  <unicode hex="00D9"/>
  <outline>
    <contour>
      <point x="506" y="857" type="line"/>
      <point x="378" y="871" type="line"/>
      <point x="371" y="852" type="line"/>
      <point x="415" y="818"/>
      <point x="541" y="729"/>
      <point x="599" y="697" type="curve"/>
      <point x="609" y="724" type="line"/>
      <point x="578" y="754"/>
      <point x="530" y="816"/>
      <point x="506" y="858" type="curve"/>
    </contour>
    <contour>
      <point x="683" y="595" type="line" smooth="yes"/>
      <point x="693" y="630"/>
      <point x="709" y="645"/>
      <point x="737" y="645" type="curve" smooth="yes"/>
      <point x="787" y="645" type="line"/>
      <point x="797" y="680" type="line"/>
      <point x="535" y="680" type="line"/>
      <point x="525" y="645" type="line"/>
      <point x="595" y="645" type="line" smooth="yes"/>
      <point x="615" y="645"/>
      <point x="624" y="636"/>
      <point x="624" y="616" type="curve" smooth="yes"/>
      <point x="624" y="609"/>
      <point x="623" y="602"/>
      <point x="621" y="595" type="curve" smooth="yes"/>
      <point x="529" y="274" type="line" smooth="yes"/>
      <point x="495" y="154"/>
      <point x="429" y="31"/>
      <point x="317" y="31" type="curve" smooth="yes"/>
      <point x="256" y="31"/>
      <point x="232" y="66"/>
      <point x="232" y="131" type="curve" smooth="yes"/>
      <point x="232" y="173"/>
      <point x="243" y="226"/>
      <point x="261" y="288" type="curve" smooth="yes"/>
      <point x="349" y="595" type="line" smooth="yes"/>
      <point x="359" y="630"/>
      <point x="375" y="645"/>
      <point x="403" y="645" type="curve" smooth="yes"/>
      <point x="443" y="645" type="line"/>
      <point x="453" y="680" type="line"/>
      <point x="145" y="680" type="line"/>
      <point x="135" y="645" type="line"/>
      <point x="195" y="645" type="line" smooth="yes"/>
      <point x="215" y="645"/>
      <point x="224" y="636"/>
      <point x="224" y="616" type="curve" smooth="yes"/>
      <point x="224" y="609"/>
      <point x="223" y="602"/>
      <point x="221" y="595" type="curve" smooth="yes"/>
      <point x="194" y="503"/>
      <point x="168" y="410"/>
      <point x="141" y="318" type="curve" smooth="yes"/>
      <point x="128" y="272"/>
      <point x="110" y="205"/>
      <point x="110" y="160" type="curve" smooth="yes"/>
      <point x="110" y="39"/>
      <point x="193" y="-12"/>
      <point x="297" y="-12" type="curve" smooth="yes"/>
      <point x="467" y="-12"/>
      <point x="545" y="118"/>
      <point x="585" y="257" type="curve" smooth="yes"/>
    </contour>
  </outline>
</glyph>
<glyph name="atilde" format="2">
  <advance width="555"/>
  <unicode hex="00E3"/>
  <outline>
    <contour>
      <point x="275" y="608" type="curve" smooth="yes"/>
      <point x="287" y="608"/>
      <point x="307" y="595"/>
      <point x="330" y="580" type="curve" smooth="yes"/>
      <point x="356" y="564"/>
      <point x="385" y="546"/>
      <point x="417" y="546" type="curve" smooth="yes"/>
      <point x="475" y="546"/>
      <point x="511" y="601"/>
      <point x="527" y="642" type="curve"/>
      <point x="489" y="656" type="line"/>
      <point x="476" y="629"/>
      <point x="459" y="604"/>
      <point x="440" y="604" type="curve" smooth="yes"/>
      <point x="428" y="604"/>
      <point x="408" y="617"/>
      <point x="385" y="632" type="curve" smooth="yes"/>
      <point x="359" y="648"/>
      <point x="330" y="666"/>
      <point x="298" y="666" type="curve" smooth="yes"/>
      <point x="240" y="666"/>
      <point x="204" y="611"/>
      <point x="188" y="570" type="curve"/>
      <point x="226" y="556" type="line"/>
      <point x="239" y="583"/>
      <point x="256" y="608"/>
    </contour>
    <contour>
      <point x="303" y="79" type="curve"/>
      <point x="295" y="79" type="line"/>
      <point x="302" y="79" type="line"/>
      <point x="292" y="79" type="line"/>
      <point x="292" y="24"/>
      <point x="312" y="-8"/>
      <point x="369" y="-8" type="curve" smooth="yes"/>
      <point x="442" y="-8"/>
      <point x="494" y="61"/>
      <point x="519" y="140" type="curve"/>
      <point x="474" y="153" type="line"/>
      <point x="455" y="95"/>
      <point x="422" y="36"/>
      <point x="401" y="36" type="curve" smooth="yes"/>
      <point x="393" y="36"/>
      <point x="389" y="43"/>
      <point x="389" y="56" type="curve" smooth="yes"/>
      <point x="389" y="73"/>
      <point x="398" y="98"/>
      <point x="409" y="132" type="curve" smooth="yes"/>
      <point x="512" y="450" type="line"/>
      <point x="402" y="450" type="line"/>
      <point x="381" y="384" type="line"/>
      <point x="391" y="384" type="line"/>
      <point x="383" y="384" type="line"/>
      <point x="393" y="384" type="line"/>
      <point x="384" y="432"/>
      <point x="358" y="462"/>
      <point x="300" y="462" type="curve" smooth="yes"/>
      <point x="205" y="462"/>
      <point x="97" y="369"/>
      <point x="60" y="252" type="curve" smooth="yes"/>
      <point x="50" y="220"/>
      <point x="45" y="183"/>
      <point x="45" y="148" type="curve" smooth="yes"/>
      <point x="45" y="66"/>
      <point x="75" y="-12"/>
      <point x="157" y="-12" type="curve" smooth="yes"/>
      <point x="211" y="-12"/>
      <point x="265" y="26"/>
    </contour>
    <contour>
      <point x="312" y="424" type="curve" smooth="yes"/>
      <point x="341" y="424"/>
      <point x="351" y="391"/>
      <point x="351" y="348" type="curve" smooth="yes"/>
      <point x="351" y="314"/>
      <point x="344" y="275"/>
      <point x="334" y="242" type="curve" smooth="yes"/>
      <point x="330" y="231"/>
      <point x="327" y="219"/>
      <point x="323" y="208" type="curve" smooth="yes"/>
      <point x="294" y="127"/>
      <point x="236" y="33"/>
      <point x="172" y="33" type="curve" smooth="yes"/>
      <point x="154" y="33"/>
      <point x="147" y="55"/>
      <point x="147" y="88" type="curve" smooth="yes"/>
      <point x="147" y="169"/>
      <point x="223" y="424"/>
    </contour>
  </outline>
</glyph>
<glyph name="adieresis" format="2">
  <advance width="555"/>
  <unicode hex="00E4"/>
  <outline>
    <contour>
      <point x="393" y="588" type="curve" smooth="yes"/>
      <point x="393" y="559"/>
      <point x="420" y="536"/>
      <point x="455" y="536" type="curve" smooth="yes"/>
      <point x="490" y="536"/>
      <point x="517" y="559"/>
      <point x="517" y="588" type="curve" smooth="yes"/>
      <point x="517" y="617"/>
      <point x="490" y="640"/>
      <point x="455" y="640" type="curve" smooth="yes"/>
      <point x="420" y="640"/>
      <point x="393" y="617"/>
    </contour>
    <contour>
      <point x="199" y="588" type="curve" smooth="yes"/>
      <point x="199" y="559"/>
      <point x="226" y="536"/>
      <point x="261" y="536" type="curve" smooth="yes"/>
      <point x="296" y="536"/>
      <point x="323" y="559"/>
      <point x="323" y="588" type="curve" smooth="yes"/>
      <point x="323" y="617"/>
      <point x="296" y="640"/>
      <point x="261" y="640" type="curve" smooth="yes"/>
      <point x="226" y="640"/>
      <point x="199" y="617"/>
    </contour>
    <contour>
      <point x="303" y="79" type="curve"/>
      <point x="295" y="79" type="line"/>
      <point x="302" y="79" type="line"/>
      <point x="292" y="79" type="line"/>
      <point x="292" y="24"/>
      <point x="312" y="-8"/>
      <point x="369" y="-8" type="curve" smooth="yes"/>
      <point x="442" y="-8"/>
      <point x="494" y="61"/>
      <point x="519" y="140" type="curve"/>
      <point x="474" y="153" type="line"/>
      <point x="455" y="95"/>
      <point x="422" y="36"/>
      <point x="401" y="36" type="curve" smooth="yes"/>
      <point x="393" y="36"/>
      <point x="389" y="43"/>
      <point x="389" y="56" type="curve" smooth="yes"/>
      <point x="389" y="73"/>
      <point x="398" y="98"/>
      <point x="409" y="132" type="curve" smooth="yes"/>
      <point x="512" y="450" type="line"/>
      <point x="402" y="450" type="line"/>
      <point x="381" y="384" type="line"/>
      <point x="391" y="384" type="line"/>
      <point x="383" y="384" type="line"/>
      <point x="393" y="384" type="line"/>
      <point x="384" y="432"/>
      <point x="358" y="462"/>
      <point x="300" y="462" type="curve" smooth="yes"/>
      <point x="205" y="462"/>
      <point x="97" y="369"/>
      <point x="60" y="252" type="curve" smooth="yes"/>
      <point x="50" y="220"/>
      <point x="45" y="183"/>
      <point x="45" y="148" type="curve" smooth="yes"/>
      <point x="45" y="66"/>
      <point x="75" y="-12"/>
      <point x="157" y="-12" type="curve" smooth="yes"/>
      <point x="211" y="-12"/>
      <point x="265" y="26"/>
    </contour>
    <contour>
      <point x="312" y="424" type="curve" smooth="yes"/>
      <point x="341" y="424"/>
      <point x="351" y="391"/>
      <point x="351" y="348" type="curve" smooth="yes"/>
      <point x="351" y="314"/>
      <point x="344" y="275"/>
      <point x="334" y="242" type="curve" smooth="yes"/>
      <point x="330" y="231"/>
      <point x="327" y="219"/>
      <point x="323" y="208" type="curve" smooth="yes"/>
      <point x="294" y="127"/>
      <point x="236" y="33"/>
      <point x="172" y="33" type="curve" smooth="yes"/>
      <point x="154" y="33"/>
      <point x="147" y="55"/>
      <point x="147" y="88" type="curve" smooth="yes"/>
      <point x="147" y="169"/>
      <point x="223" y="424"/>
    </contour>
  </outline>
</glyph>
<glyph name="ecircumflex" format="2">
  <advance width="484"/>
  <unicode hex="00EA"/>
  <outline>
    <contour>
      <point x="302" y="702" type="line"/>
      <point x="274" y="660"/>
      <point x="212" y="585"/>
      <point x="179" y="556" type="curve"/>
      <point x="189" y="528" type="line"/>
      <point x="229" y="553"/>
      <point x="289" y="594"/>
      <point x="333" y="628" type="curve"/>
      <point x="365" y="590"/>
      <point x="401" y="555"/>
      <point x="430" y="526" type="curve"/>
      <point x="464" y="538" type="line"/>
      <point x="439" y="575"/>
      <point x="399" y="656"/>
      <point x="382" y="702" type="curve"/>
    </contour>
    <contour>
      <point x="303" y="462" type="curve" smooth="yes"/>
      <point x="171" y="462"/>
      <point x="40" y="318"/>
      <point x="40" y="160" type="curve" smooth="yes"/>
      <point x="40" y="68"/>
      <point x="93" y="-12"/>
      <point x="196" y="-12" type="curve" smooth="yes"/>
      <point x="279" y="-12"/>
      <point x="361" y="47"/>
      <point x="401" y="136" type="curve"/>
      <point x="355" y="151" type="line"/>
      <point x="306" y="67"/>
      <point x="258" y="32"/>
      <point x="212" y="32" type="curve" smooth="yes"/>
      <point x="166" y="32"/>
      <point x="152" y="77"/>
      <point x="152" y="123" type="curve" smooth="yes"/>
      <point x="152" y="149"/>
      <point x="158" y="177"/>
      <point x="166" y="203" type="curve"/>
      <point x="184" y="200"/>
      <point x="199" y="199"/>
      <point x="216" y="199" type="curve" smooth="yes"/>
      <point x="361" y="199"/>
      <point x="444" y="278"/>
      <point x="444" y="351" type="curve" smooth="yes"/>
      <point x="444" y="405"/>
      <point x="395" y="462"/>
    </contour>
    <contour>
      <point x="169" y="232" type="curve"/>
      <point x="177" y="232" type="line"/>
      <point x="195" y="285" type="line" smooth="yes"/>
      <point x="216" y="347"/>
      <point x="253" y="437"/>
      <point x="305" y="437" type="curve" smooth="yes"/>
      <point x="324" y="437"/>
      <point x="336" y="411"/>
      <point x="336" y="381" type="curve" smooth="yes"/>
      <point x="336" y="310"/>
      <point x="278" y="229"/>
      <point x="194" y="229" type="curve" smooth="yes"/>
      <point x="186" y="229"/>
      <point x="179" y="230"/>
    </contour>
  </outline>
</glyph>
<glyph name="igrave" format="2">
  <advance width="339"/>
  <unicode hex="00EC"/>
  <outline>
    <contour>
      <point x="246" y="308" type="line" smooth="yes"/>
      <point x="256" y="335"/>
      <point x="261" y="360"/>
      <point x="261" y="380" type="curve" smooth="yes"/>
      <point x="261" y="426"/>
      <point x="234" y="458"/>
      <point x="179" y="458" type="curve" smooth="yes"/>
      <point x="104" y="458"/>
      <point x="51" y="383"/>
      <point x="25" y="300" type="curve"/>
      <point x="75" y="300" type="line"/>
      <point x="94" y="357"/>
      <point x="126" y="414"/>
      <point x="147" y="414" type="curve" smooth="yes"/>
      <point x="157" y="414"/>
      <point x="161" y="407"/>
      <point x="161" y="393" type="curve" smooth="yes"/>
      <point x="161" y="373"/>
      <point x="151" y="347"/>
      <point x="136" y="308" type="curve" smooth="yes"/>
      <point x="72" y="142" type="line" smooth="yes"/>
      <point x="62" y="115"/>
      <point x="57" y="90"/>
      <point x="57" y="70" type="curve" smooth="yes"/>
      <point x="57" y="24"/>
      <point x="84" y="-8"/>
      <point x="139" y="-8" type="curve" smooth="yes"/>
      <point x="214" y="-8"/>
      <point x="267" y="67"/>
      <point x="293" y="150" type="curve"/>
      <point x="243" y="150" type="line"/>
      <point x="224" y="93"/>
      <point x="192" y="36"/>
      <point x="171" y="36" type="curve" smooth="yes"/>
      <point x="161" y="36"/>
      <point x="157" y="43"/>
      <point x="157" y="57" type="curve" smooth="yes"/>
      <point x="157" y="77"/>
      <point x="167" y="103"/>
      <point x="182" y="142" type="curve" smooth="yes"/>
    </contour>
    <contour>
      <point x="204" y="693" type="line"/>
      <point x="75" y="707" type="line"/>
      <point x="68" y="688" type="line"/>
      <point x="112" y="654"/>
      <point x="238" y="565"/>
      <point x="296" y="533" type="curve"/>
      <point x="306" y="560" type="line"/>
      <point x="275" y="590"/>
      <point x="227" y="652"/>
      <point x="203" y="694" type="curve"/>
    </contour>
  </outline>
</glyph>
<glyph name="idieresis" format="2">
  <advance width="339"/>
  <unicode hex="00EF"/>
  <outline>
    <contour>
      <point x="246" y="308" type="line" smooth="yes"/>
      <point x="256" y="335"/>
      <point x="261" y="360"/>
      <point x="261" y="380" type="curve" smooth="yes"/>
      <point x="261" y="426"/>
      <point x="234" y="458"/>
      <point x="179" y="458" type="curve" smooth="yes"/>
      <point x="104" y="458"/>
      <point x="51" y="383"/>
      <point x="25" y="300" type="curve"/>
      <point x="75" y="300" type="line"/>
      <point x="94" y="357"/>
      <point x="126" y="414"/>
      <point x="147" y="414" type="curve" smooth="yes"/>
      <point x="157" y="414"/>
      <point x="161" y="407"/>
      <point x="161" y="393" type="curve" smooth="yes"/>
      <point x="161" y="373"/>
      <point x="151" y="347"/>
      <point x="136" y="308" type="curve" smooth="yes"/>
      <point x="72" y="142" type="line" smooth="yes"/>
      <point x="62" y="115"/>
      <point x="57" y="90"/>
      <point x="57" y="70" type="curve" smooth="yes"/>
      <point x="57" y="24"/>
      <point x="84" y="-8"/>
      <point x="139" y="-8" type="curve" smooth="yes"/>
      <point x="214" y="-8"/>
      <point x="267" y="67"/>
      <point x="293" y="150" type="curve"/>
      <point x="243" y="150" type="line"/>
      <point x="224" y="93"/>
      <point x="192" y="36"/>
      <point x="171" y="36" type="curve" smooth="yes"/>
      <point x="161" y="36"/>
      <point x="157" y="43"/>
      <point x="157" y="57" type="curve" smooth="yes"/>
      <point x="157" y="77"/>
      <point x="167" y="103"/>
      <point x="182" y="142" type="curve" smooth="yes"/>
    </contour>
    <contour>
      <point x="264" y="588" type="curve" smooth="yes"/>
      <point x="264" y="559"/>
      <point x="291" y="536"/>
      <point x="326" y="536" type="curve" smooth="yes"/>
      <point x="361" y="536"/>
      <point x="388" y="559"/>
      <point x="388" y="588" type="curve" smooth="yes"/>
      <point x="388" y="617"/>
      <point x="361" y="640"/>
      <point x="326" y="640" type="curve" smooth="yes"/>
      <point x="291" y="640"/>
      <point x="264" y="617"/>
    </contour>
    <contour>
      <point x="70" y="588" type="curve" smooth="yes"/>
      <point x="70" y="559"/>
      <point x="97" y="536"/>
      <point x="132" y="536" type="curve" smooth="yes"/>
      <point x="167" y="536"/>
      <point x="194" y="559"/>
      <point x="194" y="588" type="curve" smooth="yes"/>
      <point x="194" y="617"/>
      <point x="167" y="640"/>
      <point x="132" y="640" type="curve" smooth="yes"/>
      <point x="97" y="640"/>
      <point x="70" y="617"/>
    </contour>
  </outline>
</glyph>
<glyph name="guilsinglleft" format="2">
  <advance width="317"/>
  <unicode hex="2039"/>
  <outline>
    <contour>
      <point x="188" y="16" type="line"/>
      <point x="149" y="93"/>
      <point x="109" y="169"/>
      <point x="55" y="236" type="curve"/>
      <point x="143" y="304"/>
      <point x="225" y="378"/>
      <point x="306" y="454" type="curve"/>
      <point x="323" y="437" type="line"/>
      <point x="159" y="234" type="line"/>
      <point x="214" y="32" type="line"/>
    </contour>
  </outline>
</glyph>
<glyph name="musicflat" format="2">
  <advance width="397"/>
  <unicode hex="266D"/>
  <outline>
    <contour>
      <point x="166" y="696" type="line"/>
      <point x="-30" y="13" type="line" smooth="yes"/>
      <point x="-34" y="0"/>
      <point x="-31" y="-4"/>
      <point x="-19" y="0" type="curve" smooth="yes"/>
      <point x="47" y="22" type="line" smooth="yes"/>
      <point x="139" y="53"/>
      <point x="277" y="80"/>
      <point x="309" y="193" type="curve" smooth="yes"/>
      <point x="329" y="262"/>
      <point x="293" y="323"/>
      <point x="225" y="342" type="curve" smooth="yes"/>
      <point x="207" y="347"/>
      <point x="184" y="349"/>
      <point x="160" y="349" type="curve" smooth="yes"/>
      <point x="151" y="349"/>
      <point x="143" y="362"/>
      <point x="145" y="370" type="curve" smooth="yes"/>
      <point x="233" y="677" type="line"/>
    </contour>
    <contour>
      <point x="97" y="310" type="line"/>
      <point x="120" y="317"/>
      <point x="144" y="319"/>
      <point x="166" y="313" type="curve" smooth="yes"/>
      <point x="201" y="303"/>
      <point x="220" y="270"/>
      <point x="204" y="215" type="curve" smooth="yes"/>
      <point x="183" y="141"/>
      <point x="157" y="87"/>
      <point x="54" y="62" type="curve" smooth="yes"/>
      <point x="42" y="59"/>
      <point x="29" y="74"/>
      <point x="32" y="84" type="curve" smooth="yes"/>
    </contour>
  </outline>
</glyph>
